<mxfile host="app.diagrams.net" modified="2022-02-12T17:11:30.655Z" agent="5.0 (Macintosh; Intel Mac OS X 10_15_7) AppleWebKit/537.36 (KHTML, like Gecko) Chrome/97.0.4692.99 Safari/537.36" etag="tRG26qRN_7IhpP0bBPyc" version="16.2.4" type="github">
  <diagram id="eZsdxV1zKnrUx48rtSP0" name="Page-1">
    <mxGraphModel dx="1129" dy="753" grid="1" gridSize="10" guides="1" tooltips="1" connect="1" arrows="1" fold="1" page="1" pageScale="1" pageWidth="850" pageHeight="1100" math="0" shadow="0">
      <root>
        <mxCell id="0" />
        <mxCell id="1" parent="0" />
        <mxCell id="nNFIe2lCs6F5UIPrJBpu-3" value="" style="edgeStyle=orthogonalEdgeStyle;rounded=0;orthogonalLoop=1;jettySize=auto;html=1;" parent="1" source="nNFIe2lCs6F5UIPrJBpu-1" target="nNFIe2lCs6F5UIPrJBpu-2" edge="1">
          <mxGeometry relative="1" as="geometry" />
        </mxCell>
        <mxCell id="nNFIe2lCs6F5UIPrJBpu-1" value="User Enters Email" style="ellipse;whiteSpace=wrap;html=1;" parent="1" vertex="1">
          <mxGeometry x="380" y="40" width="120" height="80" as="geometry" />
        </mxCell>
        <mxCell id="nNFIe2lCs6F5UIPrJBpu-7" value="" style="edgeStyle=orthogonalEdgeStyle;rounded=0;orthogonalLoop=1;jettySize=auto;html=1;" parent="1" source="nNFIe2lCs6F5UIPrJBpu-2" target="nNFIe2lCs6F5UIPrJBpu-6" edge="1">
          <mxGeometry relative="1" as="geometry" />
        </mxCell>
        <mxCell id="nNFIe2lCs6F5UIPrJBpu-2" value="Mail Saved In DB.&amp;nbsp;&lt;br&gt;OTP generated using&amp;nbsp;&lt;span style=&quot;color: rgb(35 , 38 , 41) ; font-family: , &amp;#34;system-ui&amp;#34; , &amp;#34;segoe ui&amp;#34; , &amp;#34;liberation sans&amp;#34; , sans-serif ; font-size: 15px ; text-align: left ; background-color: rgb(255 , 255 , 255)&quot;&gt;CSPRNG. TTL = 5 mins&amp;nbsp;&lt;/span&gt;" style="whiteSpace=wrap;html=1;" parent="1" vertex="1">
          <mxGeometry x="380" y="160" width="120" height="70" as="geometry" />
        </mxCell>
        <mxCell id="nNFIe2lCs6F5UIPrJBpu-9" value="" style="edgeStyle=orthogonalEdgeStyle;rounded=0;orthogonalLoop=1;jettySize=auto;html=1;" parent="1" source="nNFIe2lCs6F5UIPrJBpu-6" target="nNFIe2lCs6F5UIPrJBpu-8" edge="1">
          <mxGeometry relative="1" as="geometry" />
        </mxCell>
        <mxCell id="nNFIe2lCs6F5UIPrJBpu-6" value="&lt;b&gt;OTP mail is sent &lt;br&gt;[3 attempts]&amp;nbsp;&lt;/b&gt;" style="whiteSpace=wrap;html=1;" parent="1" vertex="1">
          <mxGeometry x="380" y="260" width="120" height="60" as="geometry" />
        </mxCell>
        <mxCell id="nNFIe2lCs6F5UIPrJBpu-10" style="edgeStyle=orthogonalEdgeStyle;rounded=0;orthogonalLoop=1;jettySize=auto;html=1;entryX=1;entryY=0.5;entryDx=0;entryDy=0;" parent="1" source="nNFIe2lCs6F5UIPrJBpu-8" target="nNFIe2lCs6F5UIPrJBpu-6" edge="1">
          <mxGeometry relative="1" as="geometry">
            <Array as="points">
              <mxPoint x="560" y="410" />
              <mxPoint x="560" y="290" />
            </Array>
          </mxGeometry>
        </mxCell>
        <mxCell id="nNFIe2lCs6F5UIPrJBpu-14" value="" style="edgeStyle=orthogonalEdgeStyle;rounded=0;orthogonalLoop=1;jettySize=auto;html=1;" parent="1" source="nNFIe2lCs6F5UIPrJBpu-8" edge="1">
          <mxGeometry relative="1" as="geometry">
            <mxPoint x="440" y="520" as="targetPoint" />
          </mxGeometry>
        </mxCell>
        <mxCell id="nNFIe2lCs6F5UIPrJBpu-8" value="Users enters OTP&amp;nbsp;" style="rhombus;whiteSpace=wrap;html=1;" parent="1" vertex="1">
          <mxGeometry x="390" y="360" width="100" height="100" as="geometry" />
        </mxCell>
        <mxCell id="nNFIe2lCs6F5UIPrJBpu-11" value="incorrect OTP" style="text;html=1;strokeColor=none;fillColor=none;align=center;verticalAlign=middle;whiteSpace=wrap;rounded=0;" parent="1" vertex="1">
          <mxGeometry x="480" y="380" width="70" height="30" as="geometry" />
        </mxCell>
        <mxCell id="nNFIe2lCs6F5UIPrJBpu-12" value="correct OTP" style="text;html=1;strokeColor=none;fillColor=none;align=center;verticalAlign=middle;whiteSpace=wrap;rounded=0;" parent="1" vertex="1">
          <mxGeometry x="460" y="470" width="70" height="30" as="geometry" />
        </mxCell>
        <mxCell id="nNFIe2lCs6F5UIPrJBpu-15" value="Dashboard Opens&amp;nbsp;" style="ellipse;whiteSpace=wrap;html=1;" parent="1" vertex="1">
          <mxGeometry x="390" y="520" width="120" height="80" as="geometry" />
        </mxCell>
        <mxCell id="Ndk_r2dy7ArHIp7k8fPA-2" value="&lt;h1&gt;Notes&amp;nbsp;&lt;/h1&gt;&lt;p&gt;&lt;/p&gt;&lt;ol&gt;&lt;li&gt;OTP generated using CSPRNG. Follow -&amp;nbsp;https://security.stackexchange.com/a/213948/201973&lt;/li&gt;&lt;li&gt;Saving Mail in DB operation also includes generating &amp;amp; saving OTP with valid_till, attempts &amp;amp; is_validated keys&amp;nbsp;&lt;/li&gt;&lt;li&gt;TTL is 5 mins. User can ask for 3 attempts post which account is locked for the next 15 mins.&lt;/li&gt;&lt;/ol&gt;&lt;p&gt;&lt;/p&gt;" style="text;html=1;strokeColor=none;fillColor=none;spacing=5;spacingTop=-20;whiteSpace=wrap;overflow=hidden;rounded=0;" vertex="1" parent="1">
          <mxGeometry x="180" y="650" width="590" height="150" as="geometry" />
        </mxCell>
      </root>
    </mxGraphModel>
  </diagram>
</mxfile>
